<svg width="256" height="37" viewBox="0 0 256 37" fill="none" xmlns="http://www.w3.org/2000/svg">
<path d="M2.45326 30.0981C-0.817752 26.9857 -0.817752 21.9412 2.45326 18.8307L19.7877 2.33436C23.0587 -0.778119 28.3602 -0.778119 31.6291 2.33436L37 7.44499L42.3709 2.33436C45.6419 -0.778119 50.9434 -0.778119 54.2123 2.33436L71.5467 18.8287C74.8178 21.9412 74.8178 26.9857 71.5467 30.0961L66.7445 34.6656C63.4735 37.7761 58.1721 37.7761 54.9031 34.6656L48.913 28.9658L42.9228 34.6656C39.6518 37.7781 34.3503 37.7781 31.0814 34.6656L25.0913 28.9658L19.1011 34.6656C15.8301 37.7781 10.5286 37.7781 7.25972 34.6656L2.45747 30.0961L2.45326 30.0981Z" fill="url(#paint0_linear_1163_14718)"/>
<path style="mix-blend-mode:multiply" d="M48.913 28.9658L59.6359 18.7626C62.9069 15.6501 68.2083 15.6501 71.4772 18.7626L71.5467 18.8287C74.8178 21.9412 74.8178 26.9857 71.5467 30.0962L66.7445 34.6657C63.4735 37.7762 58.172 37.7762 54.9031 34.6657L48.913 28.9658Z" fill="url(#paint1_linear_1163_14718)"/>
<path style="mix-blend-mode:multiply" d="M25.0894 28.9658L14.3665 18.7626C11.0955 15.6501 5.79402 15.6501 2.52511 18.7626L2.45561 18.8287C-0.815403 21.9412 -0.815403 26.9857 2.45561 30.0962L7.25786 34.6657C10.5289 37.7762 15.8303 37.7762 19.0992 34.6657L25.0894 28.9658Z" fill="url(#paint2_linear_1163_14718)"/>
<path d="M93.4234 36.5651H97.9466L102.441 24.4162V36.5651H107.399V15.7467H100.933L95.714 29.8672L90.4659 15.7467H84V36.5651H88.9581V24.5612L93.4234 36.5651Z" fill="url(#paint3_linear_1163_14718)"/>
<path d="M125.036 36.5651H130.951L123.325 15.7467H117.323L109.61 36.5651H115.148L116.453 32.7087H123.76L125.036 36.5651ZM120.164 21.7776L122.339 28.3885H117.932L120.164 21.7776Z" fill="url(#paint4_linear_1163_14718)"/>
<path d="M141.274 30.2152C146.725 30.2152 150.002 27.5476 150.002 22.8505C150.002 18.1823 146.725 15.7467 141.274 15.7467H133.155V36.5651H138.636V30.2152H141.274ZM141.245 20.3569C143.42 20.3569 144.55 21.2847 144.55 22.9084C144.55 24.5032 143.42 25.605 141.245 25.605H138.636V20.3569H141.245Z" fill="url(#paint5_linear_1163_14718)"/>
<path d="M162.665 36.5651H164.579L172.176 18.9071V36.5651H174.176V15.7467H171.393L163.622 33.8975L155.909 15.7467H153.097V36.5651H155.127V18.9071L162.665 36.5651Z" fill="url(#paint6_linear_1163_14718)"/>
<path d="M188.171 37C194.202 37 198.696 32.1868 198.696 26.1269C198.696 20.0669 194.202 15.3118 188.171 15.3118C182.14 15.3118 177.675 20.0669 177.675 26.1269C177.675 32.1868 182.14 37 188.171 37ZM188.171 35.0573C183.271 35.0573 179.908 31.114 179.908 26.1269C179.908 21.1398 183.271 17.2544 188.171 17.2544C193.1 17.2544 196.435 21.1398 196.435 26.1269C196.435 31.114 193.1 35.0573 188.171 35.0573Z" fill="url(#paint7_linear_1163_14718)"/>
<path d="M216.346 36.5651H218.666V15.7467H216.607V33.2596L204.574 15.7467H202.168V36.5651H204.197V18.8202L216.346 36.5651Z" fill="url(#paint8_linear_1163_14718)"/>
<path d="M235.873 34.6804H225.55V26.7648H234.8V24.8801H225.55V17.6314H235.67V15.7467H223.376V36.5651H235.873V34.6804Z" fill="url(#paint9_linear_1163_14718)"/>
<path d="M247.596 28.7654L255.221 15.7467H252.96L246.581 26.7358L240.231 15.7467H237.853L245.421 28.7654V36.5651H247.596V28.7654Z" fill="url(#paint10_linear_1163_14718)"/>
<defs>
<linearGradient id="paint0_linear_1163_14718" x1="0.462849" y1="6.34871" x2="70.2639" y2="37.2968" gradientUnits="userSpaceOnUse">
<stop stop-color="#00E1F3"/>
<stop offset="1" stop-color="#1577CD"/>
</linearGradient>
<linearGradient id="paint1_linear_1163_14718" x1="62.9942" y1="26.5412" x2="57.8294" y2="21.1133" gradientUnits="userSpaceOnUse">
<stop stop-color="white"/>
<stop offset="0.12" stop-color="#FAFCFD"/>
<stop offset="0.25" stop-color="#ECF3F7"/>
<stop offset="0.4" stop-color="#D6E5EE"/>
<stop offset="0.54" stop-color="#B6D2E2"/>
<stop offset="0.7" stop-color="#8DB8D1"/>
<stop offset="0.85" stop-color="#5C9ABE"/>
<stop offset="1" stop-color="#2578A8"/>
</linearGradient>
<linearGradient id="paint2_linear_1163_14718" x1="10.9917" y1="26.5412" x2="16.1566" y2="21.1133" gradientUnits="userSpaceOnUse">
<stop stop-color="white"/>
<stop offset="0.12" stop-color="#FAFCFD"/>
<stop offset="0.25" stop-color="#ECF3F7"/>
<stop offset="0.4" stop-color="#D6E5EE"/>
<stop offset="0.54" stop-color="#B6D2E2"/>
<stop offset="0.7" stop-color="#8DB8D1"/>
<stop offset="0.85" stop-color="#5C9ABE"/>
<stop offset="1" stop-color="#2578A8"/>
</linearGradient>
<linearGradient id="paint3_linear_1163_14718" x1="-24.2433" y1="-11.9307" x2="43.0335" y2="131.658" gradientUnits="userSpaceOnUse">
<stop stop-color="#00E1F3"/>
<stop offset="0.55073" stop-color="#1577CD"/>
<stop offset="1" stop-color="#02468E"/>
</linearGradient>
<linearGradient id="paint4_linear_1163_14718" x1="-24.2433" y1="-11.9307" x2="43.0335" y2="131.658" gradientUnits="userSpaceOnUse">
<stop stop-color="#00E1F3"/>
<stop offset="0.55073" stop-color="#1577CD"/>
<stop offset="1" stop-color="#02468E"/>
</linearGradient>
<linearGradient id="paint5_linear_1163_14718" x1="-24.2433" y1="-11.9307" x2="43.0335" y2="131.658" gradientUnits="userSpaceOnUse">
<stop stop-color="#00E1F3"/>
<stop offset="0.55073" stop-color="#1577CD"/>
<stop offset="1" stop-color="#02468E"/>
</linearGradient>
<linearGradient id="paint6_linear_1163_14718" x1="-24.2433" y1="-11.9307" x2="43.0335" y2="131.658" gradientUnits="userSpaceOnUse">
<stop stop-color="#00E1F3"/>
<stop offset="0.55073" stop-color="#1577CD"/>
<stop offset="1" stop-color="#02468E"/>
</linearGradient>
<linearGradient id="paint7_linear_1163_14718" x1="-24.2433" y1="-11.9307" x2="43.0335" y2="131.658" gradientUnits="userSpaceOnUse">
<stop stop-color="#00E1F3"/>
<stop offset="0.55073" stop-color="#1577CD"/>
<stop offset="1" stop-color="#02468E"/>
</linearGradient>
<linearGradient id="paint8_linear_1163_14718" x1="-24.2433" y1="-11.9307" x2="43.0335" y2="131.658" gradientUnits="userSpaceOnUse">
<stop stop-color="#00E1F3"/>
<stop offset="0.55073" stop-color="#1577CD"/>
<stop offset="1" stop-color="#02468E"/>
</linearGradient>
<linearGradient id="paint9_linear_1163_14718" x1="-24.2433" y1="-11.9307" x2="43.0335" y2="131.658" gradientUnits="userSpaceOnUse">
<stop stop-color="#00E1F3"/>
<stop offset="0.55073" stop-color="#1577CD"/>
<stop offset="1" stop-color="#02468E"/>
</linearGradient>
<linearGradient id="paint10_linear_1163_14718" x1="-24.2433" y1="-11.9307" x2="43.0335" y2="131.658" gradientUnits="userSpaceOnUse">
<stop stop-color="#00E1F3"/>
<stop offset="0.55073" stop-color="#1577CD"/>
<stop offset="1" stop-color="#02468E"/>
</linearGradient>
</defs>
</svg>
